<?xml version="1.0" encoding="UTF-8"?>
<svg xmlns="http://www.w3.org/2000/svg" xmlns:xlink="http://www.w3.org/1999/xlink" width="375pt" height="375pt" viewBox="0 0 375 375" version="1.1">
<defs>
<clipPath id="clip1">
  <path d="M 51 40 L 322 40 L 322 335 L 51 335 Z M 51 40 "/>
</clipPath>
<clipPath id="clip2">
  <path d="M 353.886719 375 L 259.363281 375 L 0 353.886719 L 0 259.265625 L 21.105469 0 L 117.460938 0 L 375 20.964844 L 375 115.632813 Z M 353.886719 375 "/>
</clipPath>
<clipPath id="clip3">
  <path d="M 224.964844 113.75 L 345.351563 113.75 L 345.351563 234.136719 L 224.964844 234.136719 Z M 224.964844 113.75 "/>
</clipPath>
</defs>
<g id="surface1">
<rect x="0" y="0" width="375" height="375" style="fill:rgb(100%,100%,100%);fill-opacity:1;stroke:none;"/>
<rect x="0" y="0" width="375" height="375" style="fill:rgb(100%,100%,100%);fill-opacity:1;stroke:none;"/>
<g clip-path="url(#clip1)" clip-rule="nonzero">
<g clip-path="url(#clip2)" clip-rule="evenodd">
<path style=" stroke:none;fill-rule:nonzero;fill:rgb(21.972656%,71.289063%,100%);fill-opacity:1;" d="M 296.351563 200.5625 C 264.824219 146.699219 87.445313 120.285156 57.992188 40.941406 C 13.460938 146.753906 212.332031 207.464844 212.332031 207.464844 C 212.332031 207.464844 88.503906 174.75 54.242188 121.367188 C 36.878906 203.832031 188.503906 254.785156 188.503906 254.785156 C 188.503906 254.785156 145.15625 251.523438 88.46875 212.710938 C 121.003906 317.324219 321.378906 334.265625 321.378906 334.265625 C 321.378906 334.265625 314.980469 232.386719 296.355469 200.5625 "/>
</g>
</g>
<g clip-path="url(#clip3)" clip-rule="nonzero">
<path style=" stroke:none;fill-rule:nonzero;fill:rgb(100%,87.109375%,34.910583%);fill-opacity:1;" d="M 345.351563 173.941406 C 345.351563 175.914063 345.253906 177.878906 345.0625 179.84375 C 344.867188 181.804688 344.578125 183.753906 344.195313 185.683594 C 343.808594 187.617188 343.332031 189.527344 342.757813 191.414063 C 342.1875 193.300781 341.523438 195.15625 340.769531 196.976563 C 340.015625 198.796875 339.171875 200.578125 338.242188 202.316406 C 337.3125 204.054688 336.300781 205.746094 335.207031 207.382813 C 334.113281 209.023438 332.9375 210.605469 331.6875 212.128906 C 330.4375 213.652344 329.113281 215.109375 327.722656 216.503906 C 326.328125 217.898438 324.867188 219.222656 323.34375 220.472656 C 321.820313 221.722656 320.238281 222.894531 318.601563 223.992188 C 316.960938 225.085938 315.269531 226.097656 313.53125 227.027344 C 311.796875 227.957031 310.015625 228.800781 308.191406 229.554688 C 306.371094 230.308594 304.519531 230.972656 302.632813 231.542969 C 300.746094 232.117188 298.835938 232.59375 296.902344 232.980469 C 294.96875 233.363281 293.019531 233.652344 291.058594 233.84375 C 289.097656 234.039063 287.128906 234.136719 285.15625 234.136719 C 283.1875 234.136719 281.21875 234.039063 279.257813 233.84375 C 277.296875 233.652344 275.347656 233.363281 273.414063 232.980469 C 271.480469 232.59375 269.570313 232.117188 267.683594 231.542969 C 265.800781 230.972656 263.945313 230.308594 262.121094 229.554688 C 260.300781 228.800781 258.523438 227.957031 256.785156 227.027344 C 255.046875 226.097656 253.355469 225.085938 251.71875 223.992188 C 250.078125 222.894531 248.496094 221.722656 246.972656 220.472656 C 245.449219 219.222656 243.988281 217.898438 242.59375 216.503906 C 241.203125 215.109375 239.878906 213.652344 238.628906 212.128906 C 237.378906 210.605469 236.203125 209.023438 235.109375 207.382813 C 234.015625 205.746094 233.003906 204.054688 232.074219 202.316406 C 231.144531 200.578125 230.300781 198.796875 229.546875 196.976563 C 228.792969 195.15625 228.128906 193.300781 227.558594 191.414063 C 226.984375 189.527344 226.507813 187.617188 226.121094 185.683594 C 225.738281 183.753906 225.449219 181.804688 225.253906 179.84375 C 225.0625 177.878906 224.964844 175.914063 224.964844 173.941406 C 224.964844 171.972656 225.0625 170.003906 225.253906 168.042969 C 225.449219 166.078125 225.738281 164.132813 226.121094 162.199219 C 226.507813 160.265625 226.984375 158.355469 227.558594 156.46875 C 228.128906 154.582031 228.792969 152.730469 229.546875 150.90625 C 230.300781 149.085938 231.144531 147.304688 232.074219 145.566406 C 233.003906 143.828125 234.015625 142.140625 235.109375 140.5 C 236.203125 138.863281 237.378906 137.28125 238.628906 135.757813 C 239.878906 134.230469 241.203125 132.773438 242.59375 131.378906 C 243.988281 129.984375 245.449219 128.664063 246.972656 127.410156 C 248.496094 126.160156 250.078125 124.988281 251.71875 123.894531 C 253.355469 122.796875 255.046875 121.785156 256.785156 120.855469 C 258.523438 119.925781 260.300781 119.085938 262.121094 118.332031 C 263.945313 117.578125 265.800781 116.914063 267.683594 116.339844 C 269.570313 115.769531 271.480469 115.289063 273.414063 114.90625 C 275.347656 114.519531 277.296875 114.230469 279.257813 114.039063 C 281.21875 113.847656 283.1875 113.75 285.15625 113.75 C 287.128906 113.75 289.097656 113.847656 291.058594 114.039063 C 293.019531 114.230469 294.96875 114.519531 296.902344 114.90625 C 298.835938 115.289063 300.746094 115.769531 302.632813 116.339844 C 304.519531 116.914063 306.371094 117.578125 308.191406 118.332031 C 310.015625 119.085938 311.796875 119.925781 313.53125 120.855469 C 315.269531 121.785156 316.960938 122.796875 318.601563 123.894531 C 320.238281 124.988281 321.820313 126.160156 323.34375 127.410156 C 324.867188 128.664063 326.328125 129.984375 327.722656 131.378906 C 329.113281 132.773438 330.4375 134.230469 331.6875 135.757813 C 332.9375 137.28125 334.113281 138.863281 335.207031 140.5 C 336.300781 142.140625 337.3125 143.828125 338.242188 145.566406 C 339.171875 147.304688 340.015625 149.085938 340.769531 150.90625 C 341.523438 152.730469 342.1875 154.582031 342.757813 156.46875 C 343.332031 158.355469 343.808594 160.265625 344.195313 162.199219 C 344.578125 164.132813 344.867188 166.078125 345.0625 168.042969 C 345.253906 170.003906 345.351563 171.972656 345.351563 173.941406 "/>
</g>
<path style=" stroke:none;fill-rule:nonzero;fill:rgb(0%,0%,0%);fill-opacity:1;" d="M 265.367188 191.234375 C 264.8125 191.234375 264.257813 191.023438 263.835938 190.601563 L 247.359375 174.125 L 263.835938 157.648438 C 264.679688 156.800781 266.054688 156.800781 266.898438 157.648438 C 267.746094 158.492188 267.746094 159.863281 266.898438 160.710938 L 253.488281 174.125 L 266.898438 187.535156 C 267.746094 188.382813 267.746094 189.753906 266.898438 190.601563 C 266.476563 191.023438 265.921875 191.234375 265.367188 191.234375 "/>
<path style=" stroke:none;fill-rule:nonzero;fill:rgb(0%,0%,0%);fill-opacity:1;" d="M 300.90625 191.234375 C 300.351563 191.234375 299.796875 191.023438 299.371094 190.601563 C 298.527344 189.753906 298.527344 188.382813 299.371094 187.535156 L 312.785156 174.125 L 299.371094 160.710938 C 298.527344 159.863281 298.527344 158.492188 299.371094 157.648438 C 300.21875 156.800781 301.589844 156.800781 302.4375 157.648438 L 318.914063 174.125 L 302.4375 190.601563 C 302.015625 191.023438 301.460938 191.234375 300.90625 191.234375 "/>
<path style=" stroke:none;fill-rule:nonzero;fill:rgb(0%,0%,0%);fill-opacity:1;" d="M 273.414063 203.65625 C 273.148438 203.65625 272.871094 203.609375 272.609375 203.503906 C 271.496094 203.058594 270.960938 201.796875 271.40625 200.683594 L 293.40625 145.949219 C 293.851563 144.835938 295.113281 144.300781 296.226563 144.746094 C 297.335938 145.191406 297.875 146.453125 297.425781 147.5625 L 275.425781 202.300781 C 275.085938 203.144531 274.273438 203.65625 273.414063 203.65625 "/>
</g>
</svg>
